<svg width="656" height="346" viewBox="0 0 656 346" fill="none" xmlns="http://www.w3.org/2000/svg">
<path d="M586.981 273.021C586.981 129.932 470.985 13.9355 327.896 13.9355C184.807 13.9355 68.8101 129.932 68.8101 273.021" stroke="#95C7F2" stroke-width="1.728" stroke-dasharray="12.96 12.96"/>
<line x1="67.4058" y1="271.724" x2="586.981" y2="271.724" stroke="#95C7F2" stroke-width="2.592" stroke-dasharray="12.96 12.96"/>
<line x1="173.076" y1="64.4339" x2="281.906" y2="216.094" stroke="#95C7F2" stroke-width="2.592" stroke-dasharray="12.96 12.96"/>
<line x1="501.966" y1="80.8239" x2="394.209" y2="216.955" stroke="#95C7F2" stroke-width="2.592" stroke-dasharray="12.96 12.96"/>
<rect x="280.043" y="215.337" width="115.366" height="115.366" rx="7.344" stroke="#95C7F2" stroke-width="2.592" stroke-dasharray="12.96 12.96"/>
<g filter="url(#filter0_d_8183_1180)">
<rect x="302.619" y="237.916" width="70.2129" height="70.2129" rx="8.64" fill="white"/>
</g>
<g filter="url(#filter1_d_8183_1180)">
<rect x="34.0518" y="238.35" width="70.2129" height="70.2129" rx="35.1064" fill="white"/>
</g>
<g filter="url(#filter2_d_8183_1180)">
<rect x="552.052" y="238.35" width="70.2129" height="70.2129" rx="35.1064" fill="white"/>
</g>
<g filter="url(#filter3_d_8183_1180)">
<rect x="466.052" y="30.3496" width="70.2129" height="70.2129" rx="35.1064" fill="white"/>
</g>
<g filter="url(#filter4_d_8183_1180)">
<rect x="136.052" y="30.3496" width="70.2129" height="70.2129" rx="35.1064" fill="white"/>
</g>
<circle cx="330.002" cy="13.9352" r="10.8021" fill="#95C7F2" stroke="#95C7F2" stroke-width="0.864"/>
<circle cx="245.044" cy="167.002" r="10.8021" fill="#95C7F2" stroke="#95C7F2" stroke-width="0.864"/>
<circle cx="485.875" cy="273.021" r="10.8021" fill="#95C7F2" stroke="#95C7F2" stroke-width="0.864"/>
<path d="M329.644 279.16C329.644 278.677 329.381 278.23 328.952 277.984L323.223 274.697C322.779 274.442 322.228 274.442 321.785 274.697L316.059 277.984C315.631 278.23 315.368 278.677 315.368 279.159V285.805C315.368 286.287 315.63 286.734 316.059 286.98L321.784 290.27C322.228 290.525 322.78 290.525 323.223 290.271L328.953 286.98C329.381 286.734 329.644 286.287 329.644 285.804V279.16Z" fill="#4770FF"/>
<path d="M338.548 247.412C338.101 247.149 337.546 247.149 337.099 247.412L316.064 259.811C315.632 260.066 315.368 260.527 315.368 261.026V272.438C315.368 273.532 316.566 274.211 317.513 273.652L332.89 264.587C334.013 263.922 335.253 263.491 336.54 263.317C337.826 263.143 339.134 263.229 340.388 263.572C341.642 263.915 342.817 264.506 343.847 265.314C344.876 266.121 345.739 267.127 346.387 268.275C347.036 269.421 347.457 270.686 347.627 271.998C347.797 273.309 347.712 274.642 347.377 275.92C347.041 277.199 346.463 278.397 345.674 279.447C344.885 280.496 343.901 281.377 342.778 282.038L327.191 291.223C326.263 291.77 326.263 293.105 327.191 293.652L337.115 299.503C337.562 299.767 338.118 299.767 338.565 299.503L359.6 287.104C360.031 286.85 360.296 286.389 360.296 285.89V261.026C360.296 260.527 360.031 260.066 359.599 259.812L338.548 247.412Z" fill="#2A5DBD"/>
<path d="M506.677 57.9746V56.8496C506.677 56.0762 506.466 55.3027 506.185 54.5996H506.114C504.638 54.5996 503.372 53.9668 502.528 52.9121C501.544 54.5996 499.716 55.7246 497.677 55.7246H495.497C495.427 56.1465 495.427 56.498 495.427 56.8496V57.9746C495.427 61.1387 497.888 63.5996 501.052 63.5996C504.146 63.5996 506.677 61.1387 506.677 57.9746ZM501.052 47.8496C505.974 47.8496 510.052 51.9277 510.052 56.8496V57.9746C510.052 62.9668 505.974 66.9746 501.052 66.9746C496.06 66.9746 492.052 62.9668 492.052 57.9746V56.8496C492.052 51.9277 496.06 47.8496 501.052 47.8496ZM504.919 83.7793L504.989 83.8496H497.114V83.7793C496.974 83.8496 496.833 83.8496 496.692 83.8496H487.411C486.216 83.8496 485.302 82.9355 485.302 81.7402C485.302 76.3965 488.888 71.9668 493.81 70.7012C494.442 70.5605 494.935 70.9824 495.075 71.5449L497.606 81.8809L499.997 73.1621L498.661 70.9824C498.239 70.209 498.731 69.2246 499.646 69.2246H501.052H502.388C503.302 69.2246 503.794 70.209 503.372 70.9824L502.036 73.1621L504.427 81.8809L506.958 71.5449C507.099 70.9824 507.661 70.5605 508.224 70.7012C513.146 71.9668 516.802 76.3965 516.802 81.7402C516.802 82.9355 515.817 83.8496 514.622 83.8496H505.341C505.2 83.8496 505.06 83.8496 504.919 83.7793Z" fill="#FBD261"/>
<path d="M168.677 51.2246C164.599 51.2246 160.942 53.4043 158.903 56.8496C156.864 60.3652 156.864 64.6543 158.903 68.0996C160.942 71.6152 164.599 73.7246 168.677 73.7246C172.685 73.7246 176.341 71.6152 178.38 68.0996C180.419 64.6543 180.419 60.3652 178.38 56.8496C176.341 53.4043 172.685 51.2246 168.677 51.2246ZM168.677 77.0996C160.591 77.0996 154.052 70.5605 154.052 62.4746C154.052 54.459 160.591 47.8496 168.677 47.8496C176.692 47.8496 183.302 54.459 183.302 62.4746C183.302 65.9199 182.106 69.084 180.138 71.6152L189.489 81.0371C190.192 81.6699 190.192 82.7246 189.489 83.3574C188.856 84.0605 187.802 84.0605 187.169 83.3574L177.747 74.0059C175.216 75.9746 172.052 77.0996 168.677 77.0996ZM166.989 68.6621V64.1621H162.489C161.505 64.1621 160.802 63.459 160.802 62.4746C160.802 61.5605 161.505 60.7871 162.489 60.7871H166.989V56.2871C166.989 55.373 167.692 54.5996 168.677 54.5996C169.591 54.5996 170.364 55.373 170.364 56.2871V60.7871H174.864C175.778 60.7871 176.552 61.5605 176.552 62.4746C176.552 63.459 175.778 64.1621 174.864 64.1621H170.364V68.6621C170.364 69.6465 169.591 70.3496 168.677 70.3496C167.692 70.3496 166.989 69.6465 166.989 68.6621Z" fill="#4F9CF9"/>
<path d="M573.841 258.1H581.927V267.1H567.302L570.817 259.998C571.38 258.873 572.575 258.1 573.841 258.1ZM584.177 258.1H592.192C593.458 258.1 594.653 258.873 595.216 259.998L598.802 267.1H596.552H584.177V258.1ZM567.302 285.1V269.35H596.552V269.42C590.224 269.982 585.302 275.326 585.302 281.725C585.302 284.748 586.356 287.49 588.114 289.6H571.802C569.271 289.6 567.302 287.631 567.302 285.1ZM587.552 281.725C587.552 278.139 589.45 274.834 592.614 273.006C595.708 271.178 599.575 271.178 602.739 273.006C605.833 274.834 607.802 278.139 607.802 281.725C607.802 285.381 605.833 288.686 602.739 290.514C599.575 292.342 595.708 292.342 592.614 290.514C589.45 288.686 587.552 285.381 587.552 281.725ZM602.388 278.701C601.966 278.279 601.192 278.279 600.771 278.701L596.552 282.99L594.513 280.951C594.091 280.529 593.317 280.529 592.896 280.951C592.474 281.373 592.474 282.146 592.896 282.568L595.708 285.381C596.13 285.803 596.903 285.803 597.325 285.381L602.388 280.318C602.81 279.896 602.81 279.123 602.388 278.701Z" fill="#4F9CF9"/>
<path d="M50.5518 260.35C50.5518 259.154 51.5361 258.1 52.8018 258.1H57.3018C58.4971 258.1 59.5518 259.154 59.5518 260.35V271.037L70.5205 265.061C71.6455 264.498 73.0518 265.271 73.0518 266.607V271.037L84.0205 265.061C85.1455 264.498 86.5518 265.271 86.5518 266.607V277.225V286.225C86.5518 288.123 85.0049 289.6 83.1768 289.6H53.9268C52.0283 289.6 50.5518 288.123 50.5518 286.225V280.6V277.225V260.35ZM66.8643 277.787C66.2314 277.787 65.7393 278.35 65.7393 278.912V282.287C65.7393 282.92 66.2314 283.412 66.8643 283.412H70.2393C70.8018 283.412 71.3643 282.92 71.3643 282.287V278.912C71.3643 278.35 70.8018 277.787 70.2393 277.787H66.8643ZM56.7393 278.912V282.287C56.7393 282.92 57.2314 283.412 57.8643 283.412H61.2393C61.8018 283.412 62.3643 282.92 62.3643 282.287V278.912C62.3643 278.35 61.8018 277.787 61.2393 277.787H57.8643C57.2314 277.787 56.7393 278.35 56.7393 278.912ZM75.8643 277.787C75.2314 277.787 74.7393 278.35 74.7393 278.912V282.287C74.7393 282.92 75.2314 283.412 75.8643 283.412H79.2393C79.8018 283.412 80.3643 282.92 80.3643 282.287V278.912C80.3643 278.35 79.8018 277.787 79.2393 277.787H75.8643Z" fill="#FFE492"/>
<defs>
<filter id="filter0_d_8183_1180" x="268.923" y="207.676" width="137.605" height="137.605" filterUnits="userSpaceOnUse" color-interpolation-filters="sRGB">
<feFlood flood-opacity="0" result="BackgroundImageFix"/>
<feColorMatrix in="SourceAlpha" type="matrix" values="0 0 0 0 0 0 0 0 0 0 0 0 0 0 0 0 0 0 127 0" result="hardAlpha"/>
<feMorphology radius="9.504" operator="erode" in="SourceAlpha" result="effect1_dropShadow_8183_1180"/>
<feOffset dy="3.456"/>
<feGaussianBlur stdDeviation="21.6"/>
<feComposite in2="hardAlpha" operator="out"/>
<feColorMatrix type="matrix" values="0 0 0 0 0 0 0 0 0 0 0 0 0 0 0 0 0 0 0.2 0"/>
<feBlend mode="normal" in2="BackgroundImageFix" result="effect1_dropShadow_8183_1180"/>
<feBlend mode="normal" in="SourceGraphic" in2="effect1_dropShadow_8183_1180" result="shape"/>
</filter>
<filter id="filter1_d_8183_1180" x="0.355758" y="208.11" width="137.605" height="137.605" filterUnits="userSpaceOnUse" color-interpolation-filters="sRGB">
<feFlood flood-opacity="0" result="BackgroundImageFix"/>
<feColorMatrix in="SourceAlpha" type="matrix" values="0 0 0 0 0 0 0 0 0 0 0 0 0 0 0 0 0 0 127 0" result="hardAlpha"/>
<feMorphology radius="9.504" operator="erode" in="SourceAlpha" result="effect1_dropShadow_8183_1180"/>
<feOffset dy="3.456"/>
<feGaussianBlur stdDeviation="21.6"/>
<feComposite in2="hardAlpha" operator="out"/>
<feColorMatrix type="matrix" values="0 0 0 0 0 0 0 0 0 0 0 0 0 0 0 0 0 0 0.2 0"/>
<feBlend mode="normal" in2="BackgroundImageFix" result="effect1_dropShadow_8183_1180"/>
<feBlend mode="normal" in="SourceGraphic" in2="effect1_dropShadow_8183_1180" result="shape"/>
</filter>
<filter id="filter2_d_8183_1180" x="518.356" y="208.11" width="137.605" height="137.605" filterUnits="userSpaceOnUse" color-interpolation-filters="sRGB">
<feFlood flood-opacity="0" result="BackgroundImageFix"/>
<feColorMatrix in="SourceAlpha" type="matrix" values="0 0 0 0 0 0 0 0 0 0 0 0 0 0 0 0 0 0 127 0" result="hardAlpha"/>
<feMorphology radius="9.504" operator="erode" in="SourceAlpha" result="effect1_dropShadow_8183_1180"/>
<feOffset dy="3.456"/>
<feGaussianBlur stdDeviation="21.6"/>
<feComposite in2="hardAlpha" operator="out"/>
<feColorMatrix type="matrix" values="0 0 0 0 0 0 0 0 0 0 0 0 0 0 0 0 0 0 0.2 0"/>
<feBlend mode="normal" in2="BackgroundImageFix" result="effect1_dropShadow_8183_1180"/>
<feBlend mode="normal" in="SourceGraphic" in2="effect1_dropShadow_8183_1180" result="shape"/>
</filter>
<filter id="filter3_d_8183_1180" x="432.356" y="0.109609" width="137.605" height="137.605" filterUnits="userSpaceOnUse" color-interpolation-filters="sRGB">
<feFlood flood-opacity="0" result="BackgroundImageFix"/>
<feColorMatrix in="SourceAlpha" type="matrix" values="0 0 0 0 0 0 0 0 0 0 0 0 0 0 0 0 0 0 127 0" result="hardAlpha"/>
<feMorphology radius="9.504" operator="erode" in="SourceAlpha" result="effect1_dropShadow_8183_1180"/>
<feOffset dy="3.456"/>
<feGaussianBlur stdDeviation="21.6"/>
<feComposite in2="hardAlpha" operator="out"/>
<feColorMatrix type="matrix" values="0 0 0 0 0 0 0 0 0 0 0 0 0 0 0 0 0 0 0.2 0"/>
<feBlend mode="normal" in2="BackgroundImageFix" result="effect1_dropShadow_8183_1180"/>
<feBlend mode="normal" in="SourceGraphic" in2="effect1_dropShadow_8183_1180" result="shape"/>
</filter>
<filter id="filter4_d_8183_1180" x="102.356" y="0.109609" width="137.605" height="137.605" filterUnits="userSpaceOnUse" color-interpolation-filters="sRGB">
<feFlood flood-opacity="0" result="BackgroundImageFix"/>
<feColorMatrix in="SourceAlpha" type="matrix" values="0 0 0 0 0 0 0 0 0 0 0 0 0 0 0 0 0 0 127 0" result="hardAlpha"/>
<feMorphology radius="9.504" operator="erode" in="SourceAlpha" result="effect1_dropShadow_8183_1180"/>
<feOffset dy="3.456"/>
<feGaussianBlur stdDeviation="21.6"/>
<feComposite in2="hardAlpha" operator="out"/>
<feColorMatrix type="matrix" values="0 0 0 0 0 0 0 0 0 0 0 0 0 0 0 0 0 0 0.2 0"/>
<feBlend mode="normal" in2="BackgroundImageFix" result="effect1_dropShadow_8183_1180"/>
<feBlend mode="normal" in="SourceGraphic" in2="effect1_dropShadow_8183_1180" result="shape"/>
</filter>
</defs>
</svg>
