<svg xmlns="http://www.w3.org/2000/svg" width="798" height="850" fill="none"><circle cx="410.5" cy="444.5" r="347" stroke="#000"/><circle cx="410.5" cy="444.5" r="219" stroke="#000" opacity=".61"/><g filter="url(#a)"><circle cx="114.5" cy="250.5" r="44.5" fill="url(#b)"/></g><path fill="#0E1112" fill-rule="evenodd" d="m120.873 229.099-25.14 1.777c-2.028.168-2.733 1.436-2.733 2.957v26.378c0 1.184.44 2.198 1.5 3.552l5.908 7.355c.971 1.184 1.855 1.438 3.708 1.353l29.195-1.691c2.468-.169 3.176-1.269 3.176-3.128v-29.676c0-.961-.397-1.238-1.565-2.059l-8.225-5.55c-1.942-1.351-2.735-1.522-5.824-1.268zm-16.097 8.391c-2.383.153-2.924.188-4.278-.865l-3.442-2.621c-.35-.339-.174-.762.707-.847l24.168-1.69c2.029-.17 3.086.508 3.88 1.099l4.145 2.874c.176.086.617.592.087.592l-24.958 1.438-.309.02zm-2.779 29.908v-25.192c0-1.101.353-1.608 1.41-1.693l28.666-1.607c.972-.084 1.411.508 1.411 1.606v25.025c0 1.1-.176 2.031-1.764 2.115l-27.432 1.522c-1.586.084-2.291-.422-2.291-1.776zm27.079-23.842c.176.761 0 1.522-.795 1.609l-1.323.251v18.6c-1.148.592-2.205.93-3.088.93-1.412 0-1.764-.423-2.821-1.691l-8.646-13.019v12.596l2.735.593s0 1.522-2.207 1.522l-6.083.338c-.178-.339 0-1.184.616-1.353l1.589-.421v-16.656l-2.205-.17c-.177-.761.264-1.86 1.5-1.946l6.527-.42 8.996 13.188V245.84l-2.294-.253c-.176-.931.529-1.609 1.41-1.691l6.089-.34z" clip-rule="evenodd"/><g filter="url(#c)"><circle cx="386.5" cy="652.5" r="44.5" fill="url(#d)"/></g><mask id="e" width="45" height="45" x="365" y="630" maskUnits="userSpaceOnUse" style="mask-type:luminance"><path fill="#fff" d="M409.167 630H365v45h44.167v-45z"/></mask><g mask="url(#e)"><mask id="f" width="42" height="43" x="366" y="631" maskUnits="userSpaceOnUse" style="mask-type:luminance"><path fill="#fff" d="M407.94 631.25h-41.713v42.5h41.713v-42.5z"/></mask><g mask="url(#f)"><path fill="#E01E5A" d="M375.161 658.021c0 2.443-1.938 4.418-4.336 4.418-2.397 0-4.336-1.975-4.336-4.418s1.939-4.417 4.336-4.417h4.336v4.417zm2.167 0c0-2.443 1.938-4.417 4.336-4.417 2.398 0 4.335 1.974 4.335 4.417v11.043c0 2.443-1.937 4.418-4.335 4.418-2.398 0-4.336-1.975-4.336-4.418v-11.043z"/><path fill="#36C5F0" d="M381.664 640.285c-2.398 0-4.336-1.975-4.336-4.417 0-2.443 1.938-4.418 4.336-4.418 2.398 0 4.335 1.975 4.335 4.418v4.417h-4.335zm0 2.242c2.398 0 4.335 1.974 4.335 4.417 0 2.443-1.937 4.417-4.335 4.417h-10.871c-2.399 0-4.336-1.974-4.336-4.417 0-2.443 1.937-4.417 4.336-4.417h10.871z"/><path fill="#2EB67D" d="M399.039 646.944c0-2.443 1.938-4.417 4.335-4.417 2.398 0 4.336 1.974 4.336 4.417 0 2.443-1.938 4.417-4.336 4.417h-4.335v-4.417zm-2.168 0c0 2.443-1.938 4.417-4.335 4.417-2.398 0-4.336-1.974-4.336-4.417v-11.076c0-2.443 1.938-4.418 4.336-4.418 2.397 0 4.335 1.975 4.335 4.418v11.076z"/><path fill="#ECB22E" d="M392.536 664.647c2.397 0 4.335 1.974 4.335 4.417 0 2.443-1.938 4.418-4.335 4.418-2.398 0-4.336-1.975-4.336-4.418v-4.417h4.336zm0-2.208c-2.398 0-4.336-1.975-4.336-4.418s1.938-4.417 4.336-4.417h10.872c2.397 0 4.335 1.974 4.335 4.417 0 2.443-1.938 4.418-4.335 4.418h-10.872z"/></g></g><g filter="url(#g)"><circle cx="146.5" cy="663.5" r="44.5" fill="url(#h)"/></g><mask id="i" width="51" height="33" x="122" y="645" maskUnits="userSpaceOnUse" style="mask-type:luminance"><path fill="#fff" d="M172.401 645H122v32.462h50.401V645z"/></mask><g mask="url(#i)"><path fill="#0364B8" d="m141.219 654.015.001-.002 10.58 6.372 6.305-2.668a10.155 10.155 0 0 1 4.749-.815 15.85 15.85 0 0 0-4.606-7.732 15.681 15.681 0 0 0-16.953-2.848 15.776 15.776 0 0 0-6.856 5.808c.054-.001.107-.004.161-.004a12.49 12.49 0 0 1 6.619 1.889z"/><path fill="#0078D4" d="m141.22 654.012-.001.002a12.49 12.49 0 0 0-6.619-1.889c-.054 0-.107.003-.161.004a12.554 12.554 0 0 0-6.473 1.895 12.642 12.642 0 0 0-4.574 4.979 12.724 12.724 0 0 0 .872 13.031l9.33-3.948 4.148-1.754 9.235-3.908 4.823-2.04-10.58-6.372z"/><path fill="#1490DF" d="M162.854 656.902a10.16 10.16 0 0 0-4.749.816l-6.305 2.666 1.829 1.101 5.992 3.609 2.615 1.575 8.94 5.384a10.352 10.352 0 0 0 1.225-4.935 10.348 10.348 0 0 0-1.276-4.922 10.267 10.267 0 0 0-3.464-3.707 10.197 10.197 0 0 0-4.807-1.587z"/><path fill="#28A8EA" d="m162.236 666.669-2.615-1.574-5.992-3.609-1.829-1.101-4.822 2.04-9.236 3.907-4.148 1.755-9.33 3.948a12.599 12.599 0 0 0 4.505 3.99c1.8.945 3.801 1.438 5.831 1.437h27.563c1.848 0 3.662-.502 5.249-1.454a10.278 10.278 0 0 0 3.764-3.955l-8.94-5.384z"/></g><g filter="url(#j)"><circle cx="196.5" cy="464.5" r="44.5" fill="url(#k)"/></g><mask id="l" width="47" height="43" x="172" y="444" maskUnits="userSpaceOnUse" style="mask-type:luminance"><path fill="#fff" d="M218.13 444H172v42.713h46.13V444z"/></mask><g mask="url(#l)"><path fill="#0066DA" d="m175.487 480.607 2.035 3.641a4.883 4.883 0 0 0 1.743 1.808l7.266-13.034H172c0 .85.211 1.698.634 2.465l2.853 5.12z"/><path fill="#00AC47" d="m195.065 457.69-7.266-13.034a4.898 4.898 0 0 0-1.744 1.807l-13.421 24.095a5.092 5.092 0 0 0-.634 2.464h14.531l8.534-15.332z"/><path fill="#EA4335" d="M210.864 486.056a4.893 4.893 0 0 0 1.744-1.808l.845-1.506 4.042-7.255a5.098 5.098 0 0 0 .634-2.465h-14.532l3.093 6.298 4.174 6.736z"/><path fill="#00832D" d="m195.065 457.69 7.265-13.033a4.518 4.518 0 0 0-2.377-.657h-9.776c-.845 0-1.664.247-2.378.657l7.266 13.033z"/><path fill="#2684FC" d="M203.598 473.022h-17.067l-7.266 13.034a4.534 4.534 0 0 0 2.378.657h26.843c.845 0 1.665-.247 2.378-.657l-7.266-13.034z"/><path fill="#FFBA00" d="m210.785 458.51-6.711-12.047a4.898 4.898 0 0 0-1.744-1.807l-7.265 13.034 8.533 15.332h14.505c0-.849-.211-1.698-.634-2.464l-6.684-12.048z"/></g><g filter="url(#m)"><circle cx="550.5" cy="281.5" r="44.5" fill="url(#n)"/></g><path fill="#4285F4" d="M573.51 282.225c0-1.611-.144-3.159-.414-4.645h-21.387v8.795h12.221c-.536 2.828-2.146 5.222-4.561 6.833v5.718h7.369c4.295-3.964 6.772-9.785 6.772-16.701z"/><path fill="#34A853" d="M551.71 304.418c6.131 0 11.271-2.023 15.028-5.491l-7.369-5.719c-2.024 1.362-4.605 2.188-7.659 2.188-5.905 0-10.921-3.984-12.718-9.351h-7.555v5.863c3.736 7.411 11.395 12.51 20.273 12.51z"/><path fill="#FBBC05" d="M538.992 286.024a13.613 13.613 0 0 1-.723-4.315c0-1.507.269-2.952.723-4.314v-5.864h-7.556A22.438 22.438 0 0 0 529 281.709c0 3.675.888 7.123 2.436 10.178l5.884-4.583 1.672-1.28z"/><path fill="#EA4335" d="M551.71 268.042c3.344 0 6.317 1.156 8.691 3.386l6.502-6.503c-3.942-3.675-9.062-5.925-15.193-5.925-8.878 0-16.537 5.099-20.273 12.531l7.555 5.863c1.797-5.368 6.813-9.352 12.718-9.352z"/><g filter="url(#o)"><circle cx="333" cy="242" r="30" fill="url(#p)"/></g><g clip-path="url(#q)"><g clip-path="url(#r)"><g clip-path="url(#s)"><path fill="url(#t)" d="M342.433 242.97a7.355 7.355 0 0 0-7.355 7.356 7.356 7.356 0 0 0 7.355 7.357 7.356 7.356 0 0 0 7.354-7.357 7.355 7.355 0 0 0-7.354-7.356zm-19.108 0a7.355 7.355 0 0 0-7.355 7.357 7.356 7.356 0 1 0 7.355-7.357zm16.908-9.196a7.355 7.355 0 1 1-14.709 0 7.355 7.355 0 1 1 14.709 0z"/></g></g></g><g filter="url(#u)"><circle cx="62.5" cy="487.5" r="22.5" fill="url(#v)"/></g><g filter="url(#w)"><circle cx="395.5" cy="87.5" r="44.5" fill="url(#x)"/></g><path fill="#4469FC" d="M374.62 99.95a141.08 141.08 0 0 0-1.417 2.551 1.658 1.658 0 0 0-.161 1.167c.091.397.324.74.648.955l9.449 6.24a1.372 1.372 0 0 0 1.629-.074c.155-.123.286-.278.384-.456.371-.679.858-1.56 1.389-2.504 3.743-6.631 7.515-5.82 14.297-2.341l9.369 4.783a1.36 1.36 0 0 0 1.131.053c.183-.072.35-.184.491-.327.142-.144.255-.315.333-.506l4.5-10.922c.153-.375.162-.799.026-1.181a1.52 1.52 0 0 0-.753-.862c-1.977-1-5.91-2.996-9.449-4.82-12.764-6.663-23.587-6.226-31.866 8.244z"/><path fill="#4469FC" d="M416.989 75.143c.473-.827 1.003-1.794 1.454-2.551a1.66 1.66 0 0 0 .157-1.17 1.55 1.55 0 0 0-.652-.952l-9.449-6.24a1.358 1.358 0 0 0-1.106-.184c-.186.05-.362.137-.516.26a1.52 1.52 0 0 0-.384.454c-.378.678-.865 1.56-1.395 2.503-3.744 6.631-7.509 5.82-14.298 2.341l-9.398-4.759a1.37 1.37 0 0 0-1.127-.049 1.436 1.436 0 0 0-.489.326 1.558 1.558 0 0 0-.332.504l-4.499 10.92c-.153.376-.163.8-.027 1.182.136.382.407.692.753.862 1.978 1 5.917 2.989 9.45 4.822 12.756 6.606 23.579 6.17 31.858-8.27z"/><g filter="url(#y)"><circle cx="607.5" cy="544.5" r="44.5" fill="url(#z)"/></g><path fill="#4469FC" d="M586.62 556.95a141.08 141.08 0 0 0-1.417 2.551 1.658 1.658 0 0 0-.161 1.167c.091.397.324.74.648.955l9.449 6.24a1.372 1.372 0 0 0 1.629-.074c.155-.123.286-.278.384-.456.371-.679.858-1.56 1.389-2.504 3.743-6.631 7.515-5.82 14.297-2.341l9.369 4.783a1.36 1.36 0 0 0 1.131.053c.183-.072.35-.184.491-.327.142-.144.255-.315.333-.506l4.5-10.922c.153-.375.162-.799.026-1.181a1.52 1.52 0 0 0-.753-.862c-1.977-.999-5.91-2.996-9.449-4.821-12.764-6.662-23.587-6.225-31.866 8.245z"/><path fill="#4469FC" d="M628.989 532.143c.473-.827 1.003-1.795 1.454-2.551.193-.353.25-.773.157-1.169a1.549 1.549 0 0 0-.652-.953l-9.449-6.241a1.37 1.37 0 0 0-1.622.077 1.52 1.52 0 0 0-.384.454c-.378.678-.865 1.56-1.395 2.503-3.744 6.631-7.509 5.82-14.298 2.341l-9.398-4.759a1.368 1.368 0 0 0-1.127-.049 1.422 1.422 0 0 0-.489.326 1.551 1.551 0 0 0-.332.504l-4.499 10.921a1.663 1.663 0 0 0-.027 1.181c.136.382.407.692.753.862 1.978.999 5.917 2.988 9.45 4.822 12.756 6.606 23.579 6.17 31.858-8.269z"/><g filter="url(#A)"><circle cx="542.5" cy="762.5" r="44.5" fill="url(#B)"/></g><mask id="C" width="46" height="42" x="520" y="742" maskUnits="userSpaceOnUse" style="mask-type:luminance"><path fill="#fff" d="M565.25 742h-45v41.667h45V742z"/></mask><g mask="url(#C)"><path fill="#5059C9" d="M551.638 757.625h11.624c1.098 0 1.988.886 1.988 1.979v10.538c0 4.018-3.272 7.275-7.308 7.275h-.035c-4.035 0-7.308-3.256-7.308-7.274v-11.484c0-.571.465-1.034 1.039-1.034zm7.856-2.083c2.601 0 4.709-2.098 4.709-4.688 0-2.589-2.108-4.687-4.709-4.687-2.601 0-4.709 2.098-4.709 4.687 0 2.59 2.108 4.688 4.709 4.688z"/><path fill="#7B83EB" d="M544.843 755.542c3.757 0 6.802-3.032 6.802-6.771S548.6 742 544.843 742c-3.757 0-6.802 3.032-6.802 6.771s3.045 6.771 6.802 6.771zm9.07 2.083h-19.186a1.963 1.963 0 0 0-1.919 2.003v12.02c-.151 6.481 5 11.86 11.512 12.019 6.512-.159 11.663-5.538 11.512-12.019v-12.02a1.963 1.963 0 0 0-1.919-2.003z"/><path fill="#0E1112" d="M545.367 757.625v16.844a1.919 1.919 0 0 1-1.194 1.76 1.863 1.863 0 0 1-.722.146h-9.722a12.656 12.656 0 0 1-.921-4.729v-12.021a1.96 1.96 0 0 1 1.915-2h10.644z" opacity=".1"/><path fill="#0E1112" d="M544.32 757.625v17.885a1.927 1.927 0 0 1-1.915 1.907h-8.184a13.892 13.892 0 0 1-.492-1.042 10.276 10.276 0 0 1-.367-1.042 12.656 12.656 0 0 1-.554-3.687v-12.021a1.96 1.96 0 0 1 1.915-2h9.597z" opacity=".2"/><path fill="#0E1112" d="M544.32 757.625v15.802a1.925 1.925 0 0 1-1.915 1.906h-9.043a12.656 12.656 0 0 1-.554-3.687v-12.021a1.96 1.96 0 0 1 1.915-2h9.597z" opacity=".2"/><path fill="#0E1112" d="M543.273 757.625v15.802a1.925 1.925 0 0 1-1.915 1.906h-7.996a12.656 12.656 0 0 1-.554-3.687v-12.021a1.96 1.96 0 0 1 1.915-2h8.55z" opacity=".2"/><path fill="#0E1112" d="M545.366 752.239v3.282c-.178.01-.345.02-.523.02-.178 0-.346-.01-.523-.02a5.886 5.886 0 0 1-1.047-.167 6.792 6.792 0 0 1-4.709-3.979 5.7 5.7 0 0 1-.335-1.042h5.222a1.918 1.918 0 0 1 1.915 1.906z" opacity=".1"/><path fill="#0E1112" d="M544.32 753.281v2.24a5.71 5.71 0 0 1-1.047-.167 6.792 6.792 0 0 1-4.709-3.979h3.841a1.918 1.918 0 0 1 1.915 1.906z" opacity=".2"/><path fill="#0E1112" d="M544.32 753.281v2.24a5.71 5.71 0 0 1-1.047-.167 6.792 6.792 0 0 1-4.709-3.979h3.841a1.918 1.918 0 0 1 1.915 1.906z" opacity=".2"/><path fill="#0E1112" d="M543.273 753.281v2.073a6.792 6.792 0 0 1-4.709-3.979h2.794a1.918 1.918 0 0 1 1.915 1.906z" opacity=".2"/><path fill="url(#D)" d="M522.168 751.375h19.187c1.059 0 1.918.855 1.918 1.909v19.098c0 1.055-.859 1.91-1.918 1.91h-19.187a1.914 1.914 0 0 1-1.918-1.91v-19.098c0-1.054.859-1.909 1.918-1.909z"/><path fill="#fff" d="M536.81 758.645h-3.836v10.395h-2.443v-10.395h-3.818v-2.017h10.097v2.017z"/></g><mask id="F" fill="#fff"><path d="M464.946 447.411c0 15.012-5.497 28.741-14.588 39.284l14.588 20.909h-60.203c-33.249 0-60.203-26.949-60.203-60.193 0-33.245 26.954-60.194 60.203-60.194s60.203 26.949 60.203 60.194z"/></mask><path fill="url(#E)" d="M467.688 505.111c-1.362-1.498-4.831-6.446-8.157-11.349a776.3 776.3 0 0 1-5.581-8.351l-.365-.555-.095-.144-.024-.037a.068.068 0 0 1-.006-.009l-.001-.002-.001-.001-3.1 2.032-3.099 2.032.002.003.006.01.026.038.097.148.37.563a734.889 734.889 0 0 0 5.637 8.434c3.175 4.681 6.999 10.187 8.806 12.174l5.485-4.986zm-2.742 2.493v7.413h14.209l-8.13-11.654-6.079 4.241zm-14.588-20.909-5.613-4.841-3.76 4.36 3.294 4.722 6.079-4.241zm-45.615 13.497c-29.156 0-52.79-23.632-52.79-52.781h-14.825c0 37.338 30.273 67.606 67.615 67.606v-14.825zm-52.79-52.781c0-29.15 23.634-52.782 52.79-52.782v-14.825c-37.342 0-67.615 30.268-67.615 67.607h14.825zm52.79-52.782c29.156 0 52.79 23.632 52.79 52.782h14.825c0-37.339-30.273-67.607-67.615-67.607v14.825zm60.203 105.563h-60.203v14.825h60.203v-14.825zm-7.413-52.781c0 13.169-4.814 25.195-12.788 34.443l11.227 9.681c10.207-11.837 16.386-27.269 16.386-44.124h-14.825zm-13.254 43.525 14.587 20.909 12.159-8.482-14.587-20.909-12.159 8.482z" mask="url(#F)"/><g filter="url(#G)"><path fill="url(#H)" fill-rule="evenodd" d="M385.52 421.546a8.986 8.986 0 0 0 8.986 8.985c1.888 0 3.64-.582 5.087-1.577l19.561 17.403a8.953 8.953 0 0 0-.971 4.068 8.987 8.987 0 1 0 3.212-6.885l-19.304-17.173a8.985 8.985 0 0 0-7.585-13.806 8.985 8.985 0 0 0-8.986 8.985zm.96 60.078a8.987 8.987 0 1 1 7.317-14.202l22.178-12.675 1.783 3.12-22.496 12.857a8.986 8.986 0 0 1-8.782 10.9z" clip-rule="evenodd"/></g><defs><linearGradient id="b" x1="114.5" x2="106" y1="206" y2="300.5" gradientUnits="userSpaceOnUse"><stop stop-color="#F7F7F7"/><stop offset="1" stop-color="#EEE"/></linearGradient><linearGradient id="d" x1="386.5" x2="378" y1="608" y2="702.5" gradientUnits="userSpaceOnUse"><stop stop-color="#F7F7F7"/><stop offset="1" stop-color="#EEE"/></linearGradient><linearGradient id="h" x1="146.5" x2="138" y1="619" y2="713.5" gradientUnits="userSpaceOnUse"><stop stop-color="#F7F7F7"/><stop offset="1" stop-color="#EEE"/></linearGradient><linearGradient id="k" x1="196.5" x2="188" y1="420" y2="514.5" gradientUnits="userSpaceOnUse"><stop stop-color="#F7F7F7"/><stop offset="1" stop-color="#EEE"/></linearGradient><linearGradient id="n" x1="550.5" x2="542" y1="237" y2="331.5" gradientUnits="userSpaceOnUse"><stop stop-color="#F7F7F7"/><stop offset="1" stop-color="#EEE"/></linearGradient><linearGradient id="p" x1="333" x2="327.27" y1="212" y2="275.708" gradientUnits="userSpaceOnUse"><stop stop-color="#F7F7F7"/><stop offset="1" stop-color="#EEE"/></linearGradient><linearGradient id="v" x1="62.5" x2="58.202" y1="465" y2="512.781" gradientUnits="userSpaceOnUse"><stop stop-color="#F7F7F7"/><stop offset="1" stop-color="#EEE"/></linearGradient><linearGradient id="x" x1="395.5" x2="387" y1="43" y2="137.5" gradientUnits="userSpaceOnUse"><stop stop-color="#F7F7F7"/><stop offset="1" stop-color="#EEE"/></linearGradient><linearGradient id="z" x1="607.5" x2="599" y1="500" y2="594.5" gradientUnits="userSpaceOnUse"><stop stop-color="#F7F7F7"/><stop offset="1" stop-color="#EEE"/></linearGradient><linearGradient id="B" x1="542.5" x2="534" y1="718" y2="812.5" gradientUnits="userSpaceOnUse"><stop stop-color="#F7F7F7"/><stop offset="1" stop-color="#EEE"/></linearGradient><linearGradient id="D" x1="524.25" x2="539.169" y1="749.883" y2="775.843" gradientUnits="userSpaceOnUse"><stop stop-color="#5A62C3"/><stop offset=".5" stop-color="#4D55BD"/><stop offset="1" stop-color="#3940AB"/></linearGradient><linearGradient id="E" x1="325.016" x2="464.904" y1="447.39" y2="447.39" gradientUnits="userSpaceOnUse"><stop stop-color="#59C2A1"/><stop offset=".505" stop-color="#8984F5"/><stop offset="1" stop-color="#F48678"/></linearGradient><linearGradient id="H" x1="367.981" x2="436.135" y1="447.08" y2="447.08" gradientUnits="userSpaceOnUse"><stop stop-color="#59C2A1"/><stop offset=".505" stop-color="#8984F5"/><stop offset="1" stop-color="#F48678"/></linearGradient><filter id="a" width="110" height="126" x="63" y="204" color-interpolation-filters="sRGB" filterUnits="userSpaceOnUse"><feFlood flood-opacity="0" result="BackgroundImageFix"/><feColorMatrix in="SourceAlpha" result="hardAlpha" values="0 0 0 0 0 0 0 0 0 0 0 0 0 0 0 0 0 0 127 0"/><feOffset dy="2"/><feGaussianBlur stdDeviation="2"/><feColorMatrix values="0 0 0 0 0 0 0 0 0 0 0 0 0 0 0 0 0 0 0.1 0"/><feBlend in2="BackgroundImageFix" result="effect1_dropShadow_326_4076"/><feColorMatrix in="SourceAlpha" result="hardAlpha" values="0 0 0 0 0 0 0 0 0 0 0 0 0 0 0 0 0 0 127 0"/><feOffset dx="1" dy="6"/><feGaussianBlur stdDeviation="3"/><feColorMatrix values="0 0 0 0 0 0 0 0 0 0 0 0 0 0 0 0 0 0 0.09 0"/><feBlend in2="effect1_dropShadow_326_4076" result="effect2_dropShadow_326_4076"/><feColorMatrix in="SourceAlpha" result="hardAlpha" values="0 0 0 0 0 0 0 0 0 0 0 0 0 0 0 0 0 0 127 0"/><feOffset dx="2" dy="14"/><feGaussianBlur stdDeviation="4.5"/><feColorMatrix values="0 0 0 0 0 0 0 0 0 0 0 0 0 0 0 0 0 0 0.05 0"/><feBlend in2="effect2_dropShadow_326_4076" result="effect3_dropShadow_326_4076"/><feColorMatrix in="SourceAlpha" result="hardAlpha" values="0 0 0 0 0 0 0 0 0 0 0 0 0 0 0 0 0 0 127 0"/><feOffset dx="4" dy="25"/><feGaussianBlur stdDeviation="5"/><feColorMatrix values="0 0 0 0 0 0 0 0 0 0 0 0 0 0 0 0 0 0 0.01 0"/><feBlend in2="effect3_dropShadow_326_4076" result="effect4_dropShadow_326_4076"/><feBlend in="SourceGraphic" in2="effect4_dropShadow_326_4076" result="shape"/></filter><filter id="c" width="110" height="126" x="335" y="606" color-interpolation-filters="sRGB" filterUnits="userSpaceOnUse"><feFlood flood-opacity="0" result="BackgroundImageFix"/><feColorMatrix in="SourceAlpha" result="hardAlpha" values="0 0 0 0 0 0 0 0 0 0 0 0 0 0 0 0 0 0 127 0"/><feOffset dy="2"/><feGaussianBlur stdDeviation="2"/><feColorMatrix values="0 0 0 0 0 0 0 0 0 0 0 0 0 0 0 0 0 0 0.1 0"/><feBlend in2="BackgroundImageFix" result="effect1_dropShadow_326_4076"/><feColorMatrix in="SourceAlpha" result="hardAlpha" values="0 0 0 0 0 0 0 0 0 0 0 0 0 0 0 0 0 0 127 0"/><feOffset dx="1" dy="6"/><feGaussianBlur stdDeviation="3"/><feColorMatrix values="0 0 0 0 0 0 0 0 0 0 0 0 0 0 0 0 0 0 0.09 0"/><feBlend in2="effect1_dropShadow_326_4076" result="effect2_dropShadow_326_4076"/><feColorMatrix in="SourceAlpha" result="hardAlpha" values="0 0 0 0 0 0 0 0 0 0 0 0 0 0 0 0 0 0 127 0"/><feOffset dx="2" dy="14"/><feGaussianBlur stdDeviation="4.5"/><feColorMatrix values="0 0 0 0 0 0 0 0 0 0 0 0 0 0 0 0 0 0 0.05 0"/><feBlend in2="effect2_dropShadow_326_4076" result="effect3_dropShadow_326_4076"/><feColorMatrix in="SourceAlpha" result="hardAlpha" values="0 0 0 0 0 0 0 0 0 0 0 0 0 0 0 0 0 0 127 0"/><feOffset dx="4" dy="25"/><feGaussianBlur stdDeviation="5"/><feColorMatrix values="0 0 0 0 0 0 0 0 0 0 0 0 0 0 0 0 0 0 0.01 0"/><feBlend in2="effect3_dropShadow_326_4076" result="effect4_dropShadow_326_4076"/><feBlend in="SourceGraphic" in2="effect4_dropShadow_326_4076" result="shape"/></filter><filter id="g" width="110" height="126" x="95" y="617" color-interpolation-filters="sRGB" filterUnits="userSpaceOnUse"><feFlood flood-opacity="0" result="BackgroundImageFix"/><feColorMatrix in="SourceAlpha" result="hardAlpha" values="0 0 0 0 0 0 0 0 0 0 0 0 0 0 0 0 0 0 127 0"/><feOffset dy="2"/><feGaussianBlur stdDeviation="2"/><feColorMatrix values="0 0 0 0 0 0 0 0 0 0 0 0 0 0 0 0 0 0 0.1 0"/><feBlend in2="BackgroundImageFix" result="effect1_dropShadow_326_4076"/><feColorMatrix in="SourceAlpha" result="hardAlpha" values="0 0 0 0 0 0 0 0 0 0 0 0 0 0 0 0 0 0 127 0"/><feOffset dx="1" dy="6"/><feGaussianBlur stdDeviation="3"/><feColorMatrix values="0 0 0 0 0 0 0 0 0 0 0 0 0 0 0 0 0 0 0.09 0"/><feBlend in2="effect1_dropShadow_326_4076" result="effect2_dropShadow_326_4076"/><feColorMatrix in="SourceAlpha" result="hardAlpha" values="0 0 0 0 0 0 0 0 0 0 0 0 0 0 0 0 0 0 127 0"/><feOffset dx="2" dy="14"/><feGaussianBlur stdDeviation="4.5"/><feColorMatrix values="0 0 0 0 0 0 0 0 0 0 0 0 0 0 0 0 0 0 0.05 0"/><feBlend in2="effect2_dropShadow_326_4076" result="effect3_dropShadow_326_4076"/><feColorMatrix in="SourceAlpha" result="hardAlpha" values="0 0 0 0 0 0 0 0 0 0 0 0 0 0 0 0 0 0 127 0"/><feOffset dx="4" dy="25"/><feGaussianBlur stdDeviation="5"/><feColorMatrix values="0 0 0 0 0 0 0 0 0 0 0 0 0 0 0 0 0 0 0.01 0"/><feBlend in2="effect3_dropShadow_326_4076" result="effect4_dropShadow_326_4076"/><feBlend in="SourceGraphic" in2="effect4_dropShadow_326_4076" result="shape"/></filter><filter id="j" width="110" height="126" x="145" y="418" color-interpolation-filters="sRGB" filterUnits="userSpaceOnUse"><feFlood flood-opacity="0" result="BackgroundImageFix"/><feColorMatrix in="SourceAlpha" result="hardAlpha" values="0 0 0 0 0 0 0 0 0 0 0 0 0 0 0 0 0 0 127 0"/><feOffset dy="2"/><feGaussianBlur stdDeviation="2"/><feColorMatrix values="0 0 0 0 0 0 0 0 0 0 0 0 0 0 0 0 0 0 0.1 0"/><feBlend in2="BackgroundImageFix" result="effect1_dropShadow_326_4076"/><feColorMatrix in="SourceAlpha" result="hardAlpha" values="0 0 0 0 0 0 0 0 0 0 0 0 0 0 0 0 0 0 127 0"/><feOffset dx="1" dy="6"/><feGaussianBlur stdDeviation="3"/><feColorMatrix values="0 0 0 0 0 0 0 0 0 0 0 0 0 0 0 0 0 0 0.09 0"/><feBlend in2="effect1_dropShadow_326_4076" result="effect2_dropShadow_326_4076"/><feColorMatrix in="SourceAlpha" result="hardAlpha" values="0 0 0 0 0 0 0 0 0 0 0 0 0 0 0 0 0 0 127 0"/><feOffset dx="2" dy="14"/><feGaussianBlur stdDeviation="4.5"/><feColorMatrix values="0 0 0 0 0 0 0 0 0 0 0 0 0 0 0 0 0 0 0.05 0"/><feBlend in2="effect2_dropShadow_326_4076" result="effect3_dropShadow_326_4076"/><feColorMatrix in="SourceAlpha" result="hardAlpha" values="0 0 0 0 0 0 0 0 0 0 0 0 0 0 0 0 0 0 127 0"/><feOffset dx="4" dy="25"/><feGaussianBlur stdDeviation="5"/><feColorMatrix values="0 0 0 0 0 0 0 0 0 0 0 0 0 0 0 0 0 0 0.01 0"/><feBlend in2="effect3_dropShadow_326_4076" result="effect4_dropShadow_326_4076"/><feBlend in="SourceGraphic" in2="effect4_dropShadow_326_4076" result="shape"/></filter><filter id="m" width="110" height="126" x="499" y="235" color-interpolation-filters="sRGB" filterUnits="userSpaceOnUse"><feFlood flood-opacity="0" result="BackgroundImageFix"/><feColorMatrix in="SourceAlpha" result="hardAlpha" values="0 0 0 0 0 0 0 0 0 0 0 0 0 0 0 0 0 0 127 0"/><feOffset dy="2"/><feGaussianBlur stdDeviation="2"/><feColorMatrix values="0 0 0 0 0 0 0 0 0 0 0 0 0 0 0 0 0 0 0.1 0"/><feBlend in2="BackgroundImageFix" result="effect1_dropShadow_326_4076"/><feColorMatrix in="SourceAlpha" result="hardAlpha" values="0 0 0 0 0 0 0 0 0 0 0 0 0 0 0 0 0 0 127 0"/><feOffset dx="1" dy="6"/><feGaussianBlur stdDeviation="3"/><feColorMatrix values="0 0 0 0 0 0 0 0 0 0 0 0 0 0 0 0 0 0 0.09 0"/><feBlend in2="effect1_dropShadow_326_4076" result="effect2_dropShadow_326_4076"/><feColorMatrix in="SourceAlpha" result="hardAlpha" values="0 0 0 0 0 0 0 0 0 0 0 0 0 0 0 0 0 0 127 0"/><feOffset dx="2" dy="14"/><feGaussianBlur stdDeviation="4.5"/><feColorMatrix values="0 0 0 0 0 0 0 0 0 0 0 0 0 0 0 0 0 0 0.05 0"/><feBlend in2="effect2_dropShadow_326_4076" result="effect3_dropShadow_326_4076"/><feColorMatrix in="SourceAlpha" result="hardAlpha" values="0 0 0 0 0 0 0 0 0 0 0 0 0 0 0 0 0 0 127 0"/><feOffset dx="4" dy="25"/><feGaussianBlur stdDeviation="5"/><feColorMatrix values="0 0 0 0 0 0 0 0 0 0 0 0 0 0 0 0 0 0 0.01 0"/><feBlend in2="effect3_dropShadow_326_4076" result="effect4_dropShadow_326_4076"/><feBlend in="SourceGraphic" in2="effect4_dropShadow_326_4076" result="shape"/></filter><filter id="o" width="74.157" height="84.944" x="298.281" y="210.652" color-interpolation-filters="sRGB" filterUnits="userSpaceOnUse"><feFlood flood-opacity="0" result="BackgroundImageFix"/><feColorMatrix in="SourceAlpha" result="hardAlpha" values="0 0 0 0 0 0 0 0 0 0 0 0 0 0 0 0 0 0 127 0"/><feOffset dy="1.348"/><feGaussianBlur stdDeviation="1.348"/><feColorMatrix values="0 0 0 0 0 0 0 0 0 0 0 0 0 0 0 0 0 0 0.1 0"/><feBlend in2="BackgroundImageFix" result="effect1_dropShadow_326_4076"/><feColorMatrix in="SourceAlpha" result="hardAlpha" values="0 0 0 0 0 0 0 0 0 0 0 0 0 0 0 0 0 0 127 0"/><feOffset dx=".674" dy="4.045"/><feGaussianBlur stdDeviation="2.022"/><feColorMatrix values="0 0 0 0 0 0 0 0 0 0 0 0 0 0 0 0 0 0 0.09 0"/><feBlend in2="effect1_dropShadow_326_4076" result="effect2_dropShadow_326_4076"/><feColorMatrix in="SourceAlpha" result="hardAlpha" values="0 0 0 0 0 0 0 0 0 0 0 0 0 0 0 0 0 0 127 0"/><feOffset dx="1.348" dy="9.438"/><feGaussianBlur stdDeviation="3.034"/><feColorMatrix values="0 0 0 0 0 0 0 0 0 0 0 0 0 0 0 0 0 0 0.05 0"/><feBlend in2="effect2_dropShadow_326_4076" result="effect3_dropShadow_326_4076"/><feColorMatrix in="SourceAlpha" result="hardAlpha" values="0 0 0 0 0 0 0 0 0 0 0 0 0 0 0 0 0 0 127 0"/><feOffset dx="2.697" dy="16.854"/><feGaussianBlur stdDeviation="3.371"/><feColorMatrix values="0 0 0 0 0 0 0 0 0 0 0 0 0 0 0 0 0 0 0.01 0"/><feBlend in2="effect3_dropShadow_326_4076" result="effect4_dropShadow_326_4076"/><feBlend in="SourceGraphic" in2="effect4_dropShadow_326_4076" result="shape"/></filter><filter id="u" width="55.618" height="63.708" x="36.461" y="463.989" color-interpolation-filters="sRGB" filterUnits="userSpaceOnUse"><feFlood flood-opacity="0" result="BackgroundImageFix"/><feColorMatrix in="SourceAlpha" result="hardAlpha" values="0 0 0 0 0 0 0 0 0 0 0 0 0 0 0 0 0 0 127 0"/><feOffset dy="1.011"/><feGaussianBlur stdDeviation="1.011"/><feColorMatrix values="0 0 0 0 0 0 0 0 0 0 0 0 0 0 0 0 0 0 0.1 0"/><feBlend in2="BackgroundImageFix" result="effect1_dropShadow_326_4076"/><feColorMatrix in="SourceAlpha" result="hardAlpha" values="0 0 0 0 0 0 0 0 0 0 0 0 0 0 0 0 0 0 127 0"/><feOffset dx=".506" dy="3.034"/><feGaussianBlur stdDeviation="1.517"/><feColorMatrix values="0 0 0 0 0 0 0 0 0 0 0 0 0 0 0 0 0 0 0.09 0"/><feBlend in2="effect1_dropShadow_326_4076" result="effect2_dropShadow_326_4076"/><feColorMatrix in="SourceAlpha" result="hardAlpha" values="0 0 0 0 0 0 0 0 0 0 0 0 0 0 0 0 0 0 127 0"/><feOffset dx="1.011" dy="7.079"/><feGaussianBlur stdDeviation="2.275"/><feColorMatrix values="0 0 0 0 0 0 0 0 0 0 0 0 0 0 0 0 0 0 0.05 0"/><feBlend in2="effect2_dropShadow_326_4076" result="effect3_dropShadow_326_4076"/><feColorMatrix in="SourceAlpha" result="hardAlpha" values="0 0 0 0 0 0 0 0 0 0 0 0 0 0 0 0 0 0 127 0"/><feOffset dx="2.022" dy="12.64"/><feGaussianBlur stdDeviation="2.528"/><feColorMatrix values="0 0 0 0 0 0 0 0 0 0 0 0 0 0 0 0 0 0 0.01 0"/><feBlend in2="effect3_dropShadow_326_4076" result="effect4_dropShadow_326_4076"/><feBlend in="SourceGraphic" in2="effect4_dropShadow_326_4076" result="shape"/></filter><filter id="w" width="110" height="126" x="344" y="41" color-interpolation-filters="sRGB" filterUnits="userSpaceOnUse"><feFlood flood-opacity="0" result="BackgroundImageFix"/><feColorMatrix in="SourceAlpha" result="hardAlpha" values="0 0 0 0 0 0 0 0 0 0 0 0 0 0 0 0 0 0 127 0"/><feOffset dy="2"/><feGaussianBlur stdDeviation="2"/><feColorMatrix values="0 0 0 0 0 0 0 0 0 0 0 0 0 0 0 0 0 0 0.1 0"/><feBlend in2="BackgroundImageFix" result="effect1_dropShadow_326_4076"/><feColorMatrix in="SourceAlpha" result="hardAlpha" values="0 0 0 0 0 0 0 0 0 0 0 0 0 0 0 0 0 0 127 0"/><feOffset dx="1" dy="6"/><feGaussianBlur stdDeviation="3"/><feColorMatrix values="0 0 0 0 0 0 0 0 0 0 0 0 0 0 0 0 0 0 0.09 0"/><feBlend in2="effect1_dropShadow_326_4076" result="effect2_dropShadow_326_4076"/><feColorMatrix in="SourceAlpha" result="hardAlpha" values="0 0 0 0 0 0 0 0 0 0 0 0 0 0 0 0 0 0 127 0"/><feOffset dx="2" dy="14"/><feGaussianBlur stdDeviation="4.5"/><feColorMatrix values="0 0 0 0 0 0 0 0 0 0 0 0 0 0 0 0 0 0 0.05 0"/><feBlend in2="effect2_dropShadow_326_4076" result="effect3_dropShadow_326_4076"/><feColorMatrix in="SourceAlpha" result="hardAlpha" values="0 0 0 0 0 0 0 0 0 0 0 0 0 0 0 0 0 0 127 0"/><feOffset dx="4" dy="25"/><feGaussianBlur stdDeviation="5"/><feColorMatrix values="0 0 0 0 0 0 0 0 0 0 0 0 0 0 0 0 0 0 0.01 0"/><feBlend in2="effect3_dropShadow_326_4076" result="effect4_dropShadow_326_4076"/><feBlend in="SourceGraphic" in2="effect4_dropShadow_326_4076" result="shape"/></filter><filter id="y" width="110" height="126" x="556" y="498" color-interpolation-filters="sRGB" filterUnits="userSpaceOnUse"><feFlood flood-opacity="0" result="BackgroundImageFix"/><feColorMatrix in="SourceAlpha" result="hardAlpha" values="0 0 0 0 0 0 0 0 0 0 0 0 0 0 0 0 0 0 127 0"/><feOffset dy="2"/><feGaussianBlur stdDeviation="2"/><feColorMatrix values="0 0 0 0 0 0 0 0 0 0 0 0 0 0 0 0 0 0 0.1 0"/><feBlend in2="BackgroundImageFix" result="effect1_dropShadow_326_4076"/><feColorMatrix in="SourceAlpha" result="hardAlpha" values="0 0 0 0 0 0 0 0 0 0 0 0 0 0 0 0 0 0 127 0"/><feOffset dx="1" dy="6"/><feGaussianBlur stdDeviation="3"/><feColorMatrix values="0 0 0 0 0 0 0 0 0 0 0 0 0 0 0 0 0 0 0.09 0"/><feBlend in2="effect1_dropShadow_326_4076" result="effect2_dropShadow_326_4076"/><feColorMatrix in="SourceAlpha" result="hardAlpha" values="0 0 0 0 0 0 0 0 0 0 0 0 0 0 0 0 0 0 127 0"/><feOffset dx="2" dy="14"/><feGaussianBlur stdDeviation="4.5"/><feColorMatrix values="0 0 0 0 0 0 0 0 0 0 0 0 0 0 0 0 0 0 0.05 0"/><feBlend in2="effect2_dropShadow_326_4076" result="effect3_dropShadow_326_4076"/><feColorMatrix in="SourceAlpha" result="hardAlpha" values="0 0 0 0 0 0 0 0 0 0 0 0 0 0 0 0 0 0 127 0"/><feOffset dx="4" dy="25"/><feGaussianBlur stdDeviation="5"/><feColorMatrix values="0 0 0 0 0 0 0 0 0 0 0 0 0 0 0 0 0 0 0.01 0"/><feBlend in2="effect3_dropShadow_326_4076" result="effect4_dropShadow_326_4076"/><feBlend in="SourceGraphic" in2="effect4_dropShadow_326_4076" result="shape"/></filter><filter id="A" width="110" height="126" x="491" y="716" color-interpolation-filters="sRGB" filterUnits="userSpaceOnUse"><feFlood flood-opacity="0" result="BackgroundImageFix"/><feColorMatrix in="SourceAlpha" result="hardAlpha" values="0 0 0 0 0 0 0 0 0 0 0 0 0 0 0 0 0 0 127 0"/><feOffset dy="2"/><feGaussianBlur stdDeviation="2"/><feColorMatrix values="0 0 0 0 0 0 0 0 0 0 0 0 0 0 0 0 0 0 0.1 0"/><feBlend in2="BackgroundImageFix" result="effect1_dropShadow_326_4076"/><feColorMatrix in="SourceAlpha" result="hardAlpha" values="0 0 0 0 0 0 0 0 0 0 0 0 0 0 0 0 0 0 127 0"/><feOffset dx="1" dy="6"/><feGaussianBlur stdDeviation="3"/><feColorMatrix values="0 0 0 0 0 0 0 0 0 0 0 0 0 0 0 0 0 0 0.09 0"/><feBlend in2="effect1_dropShadow_326_4076" result="effect2_dropShadow_326_4076"/><feColorMatrix in="SourceAlpha" result="hardAlpha" values="0 0 0 0 0 0 0 0 0 0 0 0 0 0 0 0 0 0 127 0"/><feOffset dx="2" dy="14"/><feGaussianBlur stdDeviation="4.5"/><feColorMatrix values="0 0 0 0 0 0 0 0 0 0 0 0 0 0 0 0 0 0 0.05 0"/><feBlend in2="effect2_dropShadow_326_4076" result="effect3_dropShadow_326_4076"/><feColorMatrix in="SourceAlpha" result="hardAlpha" values="0 0 0 0 0 0 0 0 0 0 0 0 0 0 0 0 0 0 127 0"/><feOffset dx="4" dy="25"/><feGaussianBlur stdDeviation="5"/><feColorMatrix values="0 0 0 0 0 0 0 0 0 0 0 0 0 0 0 0 0 0 0.01 0"/><feBlend in2="effect3_dropShadow_326_4076" result="effect4_dropShadow_326_4076"/><feBlend in="SourceGraphic" in2="effect4_dropShadow_326_4076" result="shape"/></filter><filter id="G" width="63.208" height="75.882" x="375.22" y="412.561" color-interpolation-filters="sRGB" filterUnits="userSpaceOnUse"><feFlood flood-opacity="0" result="BackgroundImageFix"/><feColorMatrix in="SourceAlpha" result="hardAlpha" values="0 0 0 0 0 0 0 0 0 0 0 0 0 0 0 0 0 0 127 0"/><feOffset dy="2.273"/><feGaussianBlur stdDeviation="1.136"/><feColorMatrix values="0 0 0 0 0 0 0 0 0 0 0 0 0 0 0 0 0 0 0.05 0"/><feBlend in2="BackgroundImageFix" result="effect1_dropShadow_326_4076"/><feColorMatrix in="SourceAlpha" result="hardAlpha" values="0 0 0 0 0 0 0 0 0 0 0 0 0 0 0 0 0 0 127 0"/><feOffset dy="4.546"/><feGaussianBlur stdDeviation="1.136"/><feColorMatrix values="0 0 0 0 0 0 0 0 0 0 0 0 0 0 0 0 0 0 0.01 0"/><feBlend in2="effect1_dropShadow_326_4076" result="effect2_dropShadow_326_4076"/><feBlend in="SourceGraphic" in2="effect2_dropShadow_326_4076" result="shape"/></filter><clipPath id="q"><path fill="#fff" d="M315.97 225H350v34.03h-34.03z"/></clipPath><clipPath id="r"><path fill="#fff" d="M315.97 225H350v34.03h-34.03z"/></clipPath><clipPath id="s"><path fill="#fff" d="M315.97 225H350v34.03h-34.03z"/></clipPath><radialGradient id="t" cx="0" cy="0" r="1" gradientTransform="matrix(22.4085 0 0 20.7173 332.879 243.505)" gradientUnits="userSpaceOnUse"><stop stop-color="#FFB900"/><stop offset=".6" stop-color="#F95D8F"/><stop offset=".999" stop-color="#F95353"/></radialGradient></defs></svg>